<svg width="995" height="310" viewBox="0 0 995 310" fill="none" xmlns="http://www.w3.org/2000/svg">
<path d="M242 280H127V262H166V30H225C286 30 321 68 321 113C321 158 286 188 233 192L219 181C265 173 281 151 281 113C281 76 261 48 220 48H205V262H242V280Z" fill="#FFFFFF"/>
<path d="M130 30L130 195L126 195C64 195 29 158 29 113C29 68 65 30 126 30L130 30Z" fill="#FFFFFF"/>
<path d="M941 25V264H966V280H878V264H903.053V41H873V25H941Z" fill="#FFFFFF"/>
<path d="M812 264V280H714V264H740V113H715V97H778V129C795 112 814 93 829 93C844 93 855.126 101.837 862 110L842 141C830 132 819 124 807 124C800 124 791 126 778 138V264H812Z" fill="#FFFFFF"/>
<path d="M625.095 158.16C625.095 135.82 616.789 117.776 589.723 117.776C569.961 117.776 554.065 132.383 544.613 154.294L528.717 147.849C540.746 116.057 566.953 92.8579 602.612 92.8579C640.418 92.8579 662.902 116.487 662.902 156.442V247.522C662.902 258.262 668.057 262.558 675.361 262.558C682.235 262.558 688.25 259.122 692.976 254.825L701.138 265.566C692.546 275.018 680.178 284.5 666 284.5C647.097 284.5 631.54 275.018 625.525 253.536C613.066 269.003 594.77 284 572 284C547.512 284 525.709 268.144 525.709 240.218C525.709 213.582 548.05 200.263 575.116 190.382L625.095 171.479V158.16ZM625.095 186.515L591.871 200.263C574.257 207.137 563.087 216.159 563.087 232.915C563.087 251.818 573.398 261.699 588.005 261.699C603.471 261.699 614.784 252.677 625.095 241.507V186.515Z" fill="#FFFFFF"/>
<path d="M421 108.5C402 108.5 382.642 125.973 378 162H457C456 130.973 445 108.5 421 108.5ZM496 251C478.386 275.059 455.566 284.5 428.5 284.5C379.953 284.5 342 248 342 193C342 137 378.431 92.8579 425.689 92.8579C476.385 92.8579 494 133 494 178H377C377.5 231 409 261 444.5 261C460 261 474.393 257.466 489 242L496 251Z" fill="#FFFFFF"/>
</svg>
